<svg xmlns="http://www.w3.org/2000/svg" width="256" height="256" viewBox="0 0 100 100"><path fill="#ffffff" d="M22.04 57.48L22.04 57.48Q23.92 57.48 24.88 56.62Q25.85 55.77 25.85 54.42L25.85 54.42Q25.85 53.25 25.11 52.52Q24.37 51.79 22.77 51.32L22.77 51.32L20.33 50.59Q18.54 50.06 17.52 49.02Q16.50 47.98 16.50 46.22L16.50 46.22Q16.50 45.16 16.90 44.30Q17.31 43.45 18.07 42.86Q18.82 42.27 19.87 41.95Q20.92 41.63 22.24 41.63L22.24 41.63Q23.36 41.63 24.32 41.81Q25.29 41.99 26.00 42.31Q26.72 42.64 27.11 43.03Q27.50 43.42 27.50 43.84L27.50 43.84Q27.50 44.23 27.31 44.51Q27.11 44.79 26.80 44.96L26.80 44.96Q26.07 44.40 24.91 43.98Q23.75 43.56 22.32 43.56L22.32 43.56Q20.67 43.56 19.73 44.26Q18.79 44.96 18.79 46.22L18.79 46.22Q18.79 47.20 19.47 47.82Q20.14 48.43 21.71 48.88L21.71 48.88L23.41 49.38Q25.63 50.03 26.90 51.19Q28.17 52.35 28.17 54.42L28.17 54.42Q28.17 56.64 26.58 58.01Q24.98 59.38 22.04 59.38L22.04 59.38Q20.75 59.38 19.70 59.16Q18.65 58.93 17.91 58.57Q17.17 58.20 16.76 57.77Q16.36 57.34 16.36 56.92L16.36 56.92Q16.36 56.44 16.65 56.12Q16.95 55.80 17.34 55.66L17.34 55.66Q17.65 55.96 18.09 56.29Q18.54 56.61 19.13 56.87Q19.72 57.14 20.45 57.31Q21.17 57.48 22.04 57.48ZM43.60 52.55L43.60 52.55Q43.60 54.12 43.15 55.38Q42.71 56.64 41.88 57.53Q41.05 58.43 39.88 58.90Q38.70 59.38 37.25 59.38L37.25 59.38Q35.79 59.38 34.61 58.90Q33.44 58.43 32.60 57.53Q31.76 56.64 31.31 55.38Q30.86 54.12 30.86 52.55L30.86 52.55Q30.86 50.98 31.32 49.72Q31.79 48.46 32.63 47.56Q33.47 46.67 34.64 46.19Q35.82 45.72 37.25 45.72L37.25 45.72Q38.67 45.72 39.85 46.19Q41.03 46.67 41.85 47.56Q42.68 48.46 43.14 49.72Q43.60 50.98 43.60 52.55ZM37.25 47.56L37.25 47.56Q35.34 47.56 34.25 48.88Q33.16 50.20 33.16 52.55L33.16 52.55Q33.16 54.93 34.24 56.23Q35.31 57.53 37.25 57.53L37.25 57.53Q39.18 57.53 40.24 56.22Q41.31 54.90 41.31 52.55L41.31 52.55Q41.31 50.20 40.23 48.88Q39.15 47.56 37.25 47.56ZM53.07 47.59L53.07 47.59Q52.11 47.59 51.30 47.91Q50.49 48.24 49.90 48.87Q49.31 49.50 48.98 50.43Q48.64 51.37 48.64 52.58L48.64 52.58Q48.64 54.98 49.85 56.26Q51.05 57.53 53.07 57.53L53.07 57.53Q54.24 57.53 55.03 57.21Q55.81 56.89 56.43 56.47L56.43 56.47Q56.73 56.64 56.93 56.89Q57.13 57.14 57.13 57.50L57.13 57.50Q57.13 57.90 56.82 58.23Q56.51 58.57 55.96 58.82Q55.42 59.07 54.68 59.23Q53.93 59.38 53.07 59.38L53.07 59.38Q51.61 59.38 50.38 58.96Q49.15 58.54 48.25 57.70Q47.35 56.86 46.85 55.59Q46.35 54.31 46.35 52.58L46.35 52.58Q46.35 50.87 46.88 49.59Q47.41 48.32 48.31 47.45Q49.20 46.58 50.42 46.15Q51.64 45.72 53.01 45.72L53.01 45.72Q53.88 45.72 54.62 45.87Q55.36 46.02 55.89 46.30Q56.43 46.58 56.72 46.93Q57.01 47.28 57.01 47.65L57.01 47.65Q57.01 47.98 56.82 48.24Q56.62 48.49 56.31 48.63L56.31 48.63Q55.70 48.21 54.97 47.90Q54.24 47.59 53.07 47.59ZM62.84 46.98L62.84 58.96Q62.70 59.02 62.42 59.09Q62.14 59.16 61.80 59.16L61.80 59.16Q60.60 59.16 60.60 58.15L60.60 58.15L60.60 46.14Q60.74 46.08 61.03 46.01Q61.33 45.94 61.66 45.94L61.66 45.94Q62.84 45.94 62.84 46.98L62.84 46.98ZM60.26 41.99L60.26 41.99Q60.26 41.40 60.67 41.00Q61.07 40.59 61.72 40.59L61.72 40.59Q62.36 40.59 62.75 41.00Q63.15 41.40 63.15 41.99L63.15 41.99Q63.15 42.58 62.75 42.99Q62.36 43.39 61.72 43.39L61.72 43.39Q61.07 43.39 60.67 42.99Q60.26 42.58 60.26 41.99ZM71.83 57.56L71.83 57.56Q73.00 57.56 73.77 57.32Q74.54 57.08 74.88 56.86L74.88 56.86L74.88 52.80L71.41 53.16Q69.95 53.30 69.25 53.82Q68.55 54.34 68.55 55.35L68.55 55.35Q68.55 56.41 69.36 56.99Q70.17 57.56 71.83 57.56ZM71.80 45.72L71.80 45.72Q74.23 45.72 75.66 46.81Q77.09 47.90 77.09 50.25L77.09 50.25L77.09 56.89Q77.09 57.50 76.85 57.83Q76.61 58.15 76.14 58.43L76.14 58.43Q75.47 58.82 74.36 59.11Q73.25 59.41 71.83 59.41L71.83 59.41Q69.19 59.41 67.75 58.37Q66.31 57.34 66.31 55.38L66.31 55.38Q66.31 53.53 67.51 52.59Q68.72 51.65 70.90 51.43L70.90 51.43L74.88 51.04L74.88 50.25Q74.88 48.85 74.04 48.21Q73.20 47.56 71.77 47.56L71.77 47.56Q70.59 47.56 69.56 47.90Q68.52 48.24 67.71 48.66L67.71 48.66Q67.49 48.46 67.30 48.21Q67.12 47.96 67.12 47.65L67.12 47.65Q67.12 47.26 67.32 47.00Q67.51 46.75 67.93 46.53L67.93 46.53Q68.69 46.14 69.67 45.93Q70.65 45.72 71.80 45.72ZM83.64 58.96L83.64 58.96Q83.50 59.02 83.22 59.09Q82.94 59.16 82.61 59.16L82.61 59.16Q81.40 59.16 81.40 58.15L81.40 58.15L81.40 40.87Q81.54 40.82 81.84 40.75Q82.13 40.68 82.44 40.68L82.44 40.68Q83.64 40.68 83.64 41.68L83.64 41.68L83.64 58.96Z"></path></svg>